<?xml version="1.0" ?><svg enable-background="new 0 0 32 32" version="1.1" viewBox="0 0 32 32" xml:space="preserve" xmlns="http://www.w3.org/2000/svg" xmlns:xlink="http://www.w3.org/1999/xlink"><g id="Flat_copy"><g><g><path d="M16.005,31.625C7.39,31.625,0.38,24.615,0.38,16S7.39,0.375,16.005,0.375S31.63,7.385,31.63,16     S24.62,31.625,16.005,31.625z" fill="#FFFFFF"/><path d="M16.005,0.75c8.409,0,15.25,6.841,15.25,15.25s-6.841,15.25-15.25,15.25S0.755,24.409,0.755,16     S7.596,0.75,16.005,0.75 M16.005,0c-8.837,0-16,7.163-16,16c0,8.836,7.163,16,16,16s16-7.164,16-16     C32.005,7.163,24.842,0,16.005,0L16.005,0z" fill="#E5E5E5"/></g></g><g><path d="M14.289,15.596c0,0,1.678-0.128,1.678-2.136c0-2.007-1.138-2.996-2.878-2.996l-5.961-0.009v11.09h6.099    c0,0,3.05,0.096,3.05-3.327C16.277,18.218,16.501,15.596,14.289,15.596z M9.346,12.118h3.05c0,0,1.044,0.017,1.044,1.37    c0,1.402-1.044,1.402-1.044,1.402h-3.05V12.118z M12.673,19.881H9.346v-3.327h3.327c0,0,1.663,0.017,1.663,1.663    C14.337,19.864,12.913,19.881,12.673,19.881z" fill="#333333"/><path d="M20.99,13.227c-4.166,0-4.159,4.159-4.159,4.159s-0.277,4.159,4.159,4.159c0,0,3.881,0,3.881-3.327h-2.218    c0,0,0,1.663-1.663,1.663c0,0-1.663,0-1.663-2.218c0,0,4.436,0,5.545,0C24.872,16.554,24.872,13.227,20.99,13.227z M19.327,16.554    c0,0-0.037-1.663,1.663-1.663c1.7,0,1.663,1.663,1.663,1.663H19.327z" fill="#333333"/><rect fill="#333333" height="1.109" width="4.436" x="18.772" y="11.564"/></g></g></svg>